<svg width="512" height="512" viewBox="0 0 512 512" fill="none" xmlns="http://www.w3.org/2000/svg">
  <rect width="512" height="512" rx="72" fill="#0D1608"/>
  <circle cx="256" cy="256" r="188" fill="url(#glow)" opacity="0.45"/>
  <path d="M164 164H348L412 234L256 404L100 234L164 164Z" fill="url(#gemBody)" stroke="#EDFFD9" stroke-width="10" stroke-linejoin="round"/>
  <path d="M164 164L210 234L256 164L302 234L348 164" stroke="#F6FFE9" stroke-width="10" stroke-linecap="round" stroke-linejoin="round"/>
  <path d="M100 234H412" stroke="#D6FFAB" stroke-width="10" stroke-linecap="round"/>
  <path d="M210 234L256 404L302 234" stroke="#B7F56B" stroke-width="10" stroke-linecap="round" stroke-linejoin="round"/>
  <path d="M164 164L256 404L348 164" stroke="#8DDB38" stroke-width="8" stroke-linecap="round" stroke-linejoin="round" opacity="0.92"/>
  <path d="M180 144C197 117 223 103 253 103C284 103 310 117 331 147" stroke="#9EE24F" stroke-width="8" stroke-linecap="round" opacity="0.85"/>
  <path d="M204 118L216 90M286 110L304 84M336 146L370 136" stroke="#EDFFD9" stroke-width="8" stroke-linecap="round" opacity="0.8"/>
  <circle cx="223" cy="210" r="12" fill="#FFFFFF" opacity="0.9"/>
  <path d="M188 194C207 174 238 166 266 171" stroke="#FFFFFF" stroke-width="12" stroke-linecap="round" opacity="0.55"/>
  <defs>
    <radialGradient id="glow" cx="0" cy="0" r="1" gradientUnits="userSpaceOnUse" gradientTransform="translate(256 234) rotate(90) scale(210)">
      <stop stop-color="#8DDB38"/>
      <stop offset="1" stop-color="#8DDB38" stop-opacity="0"/>
    </radialGradient>
    <linearGradient id="gemBody" x1="128" y1="144" x2="332" y2="416" gradientUnits="userSpaceOnUse">
      <stop stop-color="#EEFFD2"/>
      <stop offset="0.28" stop-color="#BAF66B"/>
      <stop offset="0.62" stop-color="#63B927"/>
      <stop offset="1" stop-color="#326C1A"/>
    </linearGradient>
  </defs>
</svg>
