<svg width="512" height="512" viewBox="0 0 512 512" fill="none" xmlns="http://www.w3.org/2000/svg">
  <rect width="512" height="512" rx="72" fill="#07121D"/>
  <circle cx="256" cy="256" r="188" fill="url(#glow)" opacity="0.45"/>
  <path
    d="M164 164H348L412 234L256 404L100 234L164 164Z"
    fill="url(#gemBody)"
    stroke="#C8FFF5"
    stroke-width="10"
    stroke-linejoin="round"
  />
  <path d="M164 164L210 234L256 164L302 234L348 164" stroke="#E8FFFC" stroke-width="10" stroke-linecap="round" stroke-linejoin="round"/>
  <path d="M100 234H412" stroke="#D7FFF8" stroke-width="10" stroke-linecap="round"/>
  <path d="M210 234L256 404L302 234" stroke="#C4FFF5" stroke-width="10" stroke-linecap="round" stroke-linejoin="round"/>
  <path d="M164 164L256 404L348 164" stroke="#93F4E4" stroke-width="8" stroke-linecap="round" stroke-linejoin="round" opacity="0.9"/>
  <path
    d="M186 142C200 118 224 104 254 104C284 104 310 118 326 142"
    stroke="#7CF8EA"
    stroke-width="8"
    stroke-linecap="round"
    opacity="0.8"
  />
  <path
    d="M212 120L224 92M286 112L302 84M336 146L370 132"
    stroke="#C8FFF5"
    stroke-width="8"
    stroke-linecap="round"
    opacity="0.8"
  />
  <circle cx="223" cy="210" r="12" fill="#FFFFFF" opacity="0.9"/>
  <path
    d="M188 194C208 174 236 166 264 170"
    stroke="#FFFFFF"
    stroke-width="12"
    stroke-linecap="round"
    opacity="0.55"
  />
  <defs>
    <radialGradient id="glow" cx="0" cy="0" r="1" gradientUnits="userSpaceOnUse" gradientTransform="translate(256 234) rotate(90) scale(210)">
      <stop stop-color="#29E9D1"/>
      <stop offset="1" stop-color="#29E9D1" stop-opacity="0"/>
    </radialGradient>
    <linearGradient id="gemBody" x1="128" y1="144" x2="332" y2="416" gradientUnits="userSpaceOnUse">
      <stop stop-color="#B6FFF4"/>
      <stop offset="0.28" stop-color="#65E8DB"/>
      <stop offset="0.62" stop-color="#2298D4"/>
      <stop offset="1" stop-color="#1556A8"/>
    </linearGradient>
  </defs>
</svg>
