<svg width="128" height="128" viewBox="0 0 24 24" xmlns="http://www.w3.org/2000/svg" fill="none">
  <!-- Minimal chat bubble + heart. Uses currentColor for VS Code activity bar theming. -->
  <path
    d="M7.2 7.4h9.6c1.2 0 2.2 1 2.2 2.2v5.1c0 1.2-1 2.2-2.2 2.2H12l-2.6 2.2c-.5.4-1.3 0-1.3-.6v-1.6H7.2c-1.2 0-2.2-1-2.2-2.2V9.6c0-1.2 1-2.2 2.2-2.2Z"
    stroke="currentColor"
    stroke-width="1.8"
    stroke-linejoin="round"
    stroke-linecap="round"
  />
  <path
    d="M12 15.1c-1.35-1.05-2.7-2.15-2.7-3.45 0-.85.7-1.55 1.6-1.55.55 0 1.05.25 1.35.65.3-.4.8-.65 1.35-.65.9 0 1.6.7 1.6 1.55 0 1.3-1.35 2.4-2.7 3.45Z"
    fill="currentColor"
  />
</svg>
